<?xml version="1.0" encoding="UTF-8"?>
<svg id="Layer_2" data-name="Layer 2" xmlns="http://www.w3.org/2000/svg" viewBox="0 0 577.67 229.96">
  <defs>
    <style>
      .cls-1 {
        fill: #fff;
      }

      .cls-2 {
        fill: #f7ca80;
      }
    </style>
  </defs>
  <g id="Layer_1-2" data-name="Layer 1">
    <g>
      <path class="cls-2" d="M131.84,50.33l-19.46,.25L124.87,0h70.86s-22.19,50.09-63.89,50.33Z"/>
      <path class="cls-2" d="M145.39,228.21l-17.07-.3c-49.4,.3-67.07-50-67.07-50l96.37,.45-12.23,49.85Z"/>
      <path class="cls-2" d="M171.48,109.26l-73.5-.22,12.19-50.33h145.88s-18.5,50.55-84.57,50.55Z"/>
      <path class="cls-2" d="M73.67,169.17l85.67,.28,12.33-50.33H0s19.09,50.05,73.67,50.05Z"/>
      <path class="cls-1" d="M212.16,118.26h21.51c5.85,0,9.58,1.75,11.19,5.24,.96,2.26,1.11,4.79,.4,7.15-.68,3.01-2.29,5.72-4.6,7.76-1.42,1.21-3.02,2.2-4.73,2.93,1.88,.69,3.57,1.82,4.92,3.3,1.72,2.18,2.1,5.18,1.15,9-.87,3.35-2.68,6.39-5.21,8.75-4,3.91-9.28,5.86-15.83,5.86h-21.17l12.37-49.99Zm10.3,44.23c4.15,0,7.41-1.2,9.76-3.61,1.49-1.54,2.54-3.44,3.05-5.52,.9-3.63-.1-6.11-3-7.42-2.09-.8-4.33-1.16-6.57-1.05h-13.48l-4.36,17.6h14.6Zm3.43-23.08c2.39,.1,4.78-.31,7-1.19,2.8-1.23,4.82-3.74,5.41-6.74,.82-3.27,.05-5.47-2.32-6.6-2.07-.77-4.27-1.11-6.47-1h-12.13l-3.81,15.53h12.32Z"/>
      <path class="cls-1" d="M266.46,118.26h36.46l-1.54,6.13h-29.86l-3.73,15.19h27.61l-1.43,5.79h-27.61l-4.2,17h30.37l-1.47,6h-37l12.4-50.11Z"/>
      <path class="cls-1" d="M355.67,118.26l-1.47,6h-16.84l-10.9,44.06h-6.88l10.9-44.06h-16.81l1.47-6h40.53Z"/>
      <path class="cls-1" d="M369.02,118.26h6.84l-5.11,20.67h26l5.11-20.67h6.84l-12.37,50h-6.84l5.79-23.39h-26l-5.79,23.39h-6.82l12.35-50Z"/>
      <path class="cls-1" d="M440.67,118.26h7.66l5.78,50h-7.42l-1.38-15h-19.74l-9.1,15h-6.95l31.15-50Zm3.8,29.52l-2.12-22.1-13.49,22.13,15.61-.03Z"/>
      <path class="cls-1" d="M479.67,118.26h8l15.22,40.55,10-40.51h6.43l-12.37,50h-7.59l-15.61-40.49-10,40.48h-6.47l12.39-50.03Z"/>
      <path class="cls-1" d="M533.1,118.26h7.9l8.42,24,20.31-24h7.94l-26.3,29.86-5,20.16h-6.7l5-20.16-11.57-29.86Z"/>
      <path class="cls-1" d="M197.19,178.47h6.84l-5.11,20.67h26l5.11-20.67h6.84l-12.37,50h-6.83l5.79-23.39h-26l-5.79,23.4h-6.84l12.36-50.01Z"/>
      <path class="cls-1" d="M293.76,185.62c2.23,4.43,2.48,10.09,.77,17-1.62,7.05-5.18,13.5-10.28,18.62-5.58,5.68-13.25,8.83-21.21,8.72-7.69,0-13.11-2.54-16.25-7.63-2.71-4.9-3.14-11.1-1.29-18.59,1.53-6.51,4.74-12.49,9.32-17.36,5.48-6.02,13.29-9.39,21.43-9.26,8.83,0,14.66,2.83,17.51,8.5Zm-6.21,17.09c1.45-5.88,1.09-10.61-1.09-14.2-2.18-3.59-5.94-5.38-11.27-5.38-5.16,0-10.15,1.89-14,5.33-4.15,3.55-7.09,8.79-8.8,15.71-1.37,5.54-1.13,10.21,.74,14s5.94,5.69,12.23,5.7c5.57,.18,10.92-2.18,14.54-6.42,3.69-4.23,6.32-9.28,7.64-14.74h.01Z"/>
      <path class="cls-1" d="M322.9,178.47l-7.65,30.91c-.9,3.63-.97,6.65-.21,9.06,1.12,3.63,4.08,5.45,8.87,5.45,5.74,0,10.13-1.96,13.18-5.89,1.84-2.58,3.14-5.51,3.81-8.61l7.65-30.91h6.88l-7,28.09c-1.51,6.15-3.51,10.89-6,14.2-4.51,6.03-10.99,9.04-19.45,9.04s-13.44-3.02-14.94-9.06c-.84-3.33-.51-8.07,1-14.2l7-28.09h6.86Z"/>
      <path class="cls-1" d="M368.9,212.35c-.56,2.28-.46,4.68,.3,6.91,1.43,3.33,4.98,5,10.65,5,2.45,.01,4.88-.35,7.22-1.09,4.39-1.41,7.03-3.93,7.92-7.56,.67-2.72,.29-4.66-1.12-5.82-1.41-1.16-3.86-2.16-7.35-3l-6.42-1.53c-4.17-1-7.02-2.1-8.57-3.3-2.67-2.09-3.48-5.21-2.43-9.36,1.08-4.45,3.7-8.37,7.4-11.07,3.82-2.88,8.58-4.32,14.28-4.32,5.24,0,9.38,1.27,12.41,3.8s3.86,6.58,2.48,12.13h-6.37c.32-2.67,.11-4.72-.64-6.16-1.43-2.61-4.62-3.91-9.57-3.92-4,0-7.08,.84-9.23,2.52-1.99,1.43-3.42,3.5-4.07,5.86-.61,2.45-.03,4.25,1.72,5.38,1.15,.73,3.96,1.63,8.42,2.72l6.62,1.6c2.55,.48,4.95,1.57,7,3.17,2.62,2.34,3.38,5.73,2.27,10.18-1.37,5.54-4.37,9.5-9,11.88-4.62,2.38-9.74,3.6-14.93,3.57-6.22,0-10.69-1.59-13.42-4.77-2.73-3.18-3.39-7.46-2-12.84l6.43,.02Z"/>
      <path class="cls-1" d="M427,178.47h36.46l-1.54,6.13h-29.85l-3.74,15.21h27.61l-1.43,5.79h-27.6l-4.2,17h30.36l-1.47,6h-36.93l12.33-50.13Z"/>
    </g>
  </g>
</svg>