<?xml version="1.0" encoding="UTF-8"?>
<svg id="Layer_2" data-name="Layer 2" xmlns="http://www.w3.org/2000/svg" viewBox="0 0 412.81 164.33">
  <defs>
    <style>
      .cls-1 {
        fill: #0c2d4f;
      }
    </style>
  </defs>
  <g id="Layer_1-2" data-name="Layer 1">
    <g>
      <path class="cls-1" d="M94.22,35.97l-13.91,.18L89.24,0h50.64s-15.86,35.8-45.66,35.97"/>
      <path class="cls-1" d="M103.9,163.08l-12.2-.21c-35.3,.21-47.93-35.75-47.93-35.75l68.87,.32-8.75,35.64Z"/>
      <path class="cls-1" d="M122.55,78.08l-52.53-.15,8.71-35.97h104.25s-13.22,36.12-60.43,36.12"/>
      <path class="cls-1" d="M52.67,120.89l61.22,.2,8.82-35.97H0s13.64,35.77,52.67,35.77"/>
      <path class="cls-1" d="M151.61,84.51h15.35c4.18,0,6.85,1.25,7.99,3.74,.68,1.48,.77,3.18,.28,5.11-.55,2.26-1.64,4.1-3.28,5.55-.85,.76-1.98,1.46-3.38,2.09,1.65,.7,2.82,1.48,3.52,2.36,1.23,1.56,1.5,3.71,.82,6.45-.57,2.3-1.81,4.39-3.72,6.25-2.84,2.79-6.61,4.18-11.31,4.18h-15.11l8.84-35.74Zm7.36,31.6c2.97,0,5.29-.86,6.97-2.58,1.06-1.09,1.79-2.4,2.18-3.94,.64-2.59-.08-4.36-2.18-5.3-1.1-.5-2.67-.75-4.69-.75h-9.61l-3.12,12.58h10.44Zm2.45-16.5c2.04,0,3.7-.28,4.97-.85,2.01-.89,3.3-2.5,3.87-4.82,.58-2.33,.03-3.91-1.66-4.72-.97-.45-2.52-.68-4.62-.68h-8.64l-2.72,11.07h8.81Z"/>
      <polygon class="cls-1" points="190.42 84.51 216.47 84.51 215.37 88.89 194.03 88.89 191.37 99.74 211.1 99.74 210.08 103.88 190.35 103.88 187.35 116 209.05 116 208 120.25 181.58 120.25 190.42 84.51"/>
      <polygon class="cls-1" points="254.18 84.51 253.13 88.77 241.09 88.77 233.3 120.25 228.38 120.25 236.17 88.77 224.13 88.77 225.18 84.51 254.18 84.51"/>
      <polygon class="cls-1" points="263.71 84.51 268.6 84.51 264.95 99.28 283.54 99.28 287.19 84.51 292.08 84.51 283.24 120.25 278.35 120.25 282.49 103.54 263.9 103.54 259.76 120.25 254.87 120.25 263.71 84.51"/>
      <path class="cls-1" d="M314.94,84.51h5.47l4.13,35.74h-5.3l-.99-10.7h-14.14l-6.5,10.7h-4.96l22.29-35.74Zm2.72,21.09l-1.52-15.79-9.67,15.79h11.19Z"/>
      <polygon class="cls-1" points="342.77 84.51 348.49 84.51 359.38 113.47 366.54 84.51 371.14 84.51 362.3 120.25 356.88 120.25 345.7 91.33 338.56 120.25 333.94 120.25 342.77 84.51"/>
      <polygon class="cls-1" points="380.97 84.51 386.61 84.51 392.63 101.69 407.14 84.51 412.81 84.51 394.02 105.85 390.47 120.25 385.63 120.25 389.17 105.85 380.97 84.51"/>
      <polygon class="cls-1" points="140.91 127.54 145.8 127.54 142.15 142.31 160.74 142.31 164.39 127.54 169.28 127.54 160.44 163.28 155.55 163.28 159.69 146.56 141.1 146.56 136.96 163.28 132.08 163.28 140.91 127.54"/>
      <path class="cls-1" d="M209.92,132.65c1.59,3.16,1.77,7.21,.55,12.14-1.32,5.34-3.77,9.77-7.35,13.31-4.22,4.15-9.27,6.23-15.16,6.23-5.5,0-9.37-1.82-11.61-5.45-1.94-3.5-2.25-7.93-.92-13.28,1.19-4.83,3.41-8.97,6.66-12.41,4.18-4.41,9.28-6.62,15.32-6.62s10.48,2.03,12.51,6.08m-4.44,12.21c1.04-4.2,.78-7.58-.78-10.15-1.56-2.56-4.24-3.84-8.05-3.84s-7.03,1.27-10,3.81c-2.97,2.54-5.07,6.28-6.29,11.23-.98,3.96-.81,7.29,.53,10.01,1.33,2.72,4.24,4.08,8.74,4.08s7.73-1.53,10.39-4.59c2.66-3.06,4.48-6.57,5.47-10.55"/>
      <path class="cls-1" d="M230.75,127.54l-5.47,22.09c-.64,2.6-.69,4.75-.15,6.47,.8,2.6,2.91,3.89,6.34,3.89,4.1,0,7.24-1.4,9.42-4.21,1.17-1.52,2.08-3.58,2.72-6.15l5.47-22.09h4.92l-4.98,20.07c-1.08,4.4-2.5,7.78-4.27,10.15-3.25,4.31-7.89,6.47-13.92,6.47s-9.59-2.16-10.67-6.47c-.6-2.37-.36-5.75,.72-10.15l4.98-20.07h4.92Z"/>
      <path class="cls-1" d="M263.62,151.75c-.38,2.03-.31,3.68,.22,4.94,1.02,2.37,3.56,3.55,7.61,3.55,1.82,0,3.54-.26,5.16-.78,3.13-1.01,5.02-2.81,5.66-5.4,.49-1.95,.22-3.33-.8-4.16-1.03-.81-2.78-1.52-5.26-2.12l-4.58-1.09c-2.98-.71-5.02-1.5-6.12-2.36-1.89-1.49-2.47-3.72-1.74-6.69,.79-3.21,2.56-5.85,5.29-7.91,2.73-2.06,6.13-3.09,10.21-3.09,3.75,0,6.7,.9,8.87,2.71,2.17,1.81,2.76,4.7,1.78,8.67h-4.55c.23-1.91,.08-3.38-.45-4.4-1.02-1.86-3.3-2.8-6.84-2.8-2.85,0-5.05,.6-6.59,1.8-1.54,1.2-2.51,2.6-2.91,4.18-.43,1.75-.03,3.03,1.23,3.84,.83,.52,2.83,1.17,6.01,1.95l4.73,1.14c2.28,.55,3.96,1.31,5.03,2.26,1.87,1.67,2.41,4.1,1.62,7.27-.98,3.96-3.12,6.79-6.43,8.49-3.3,1.7-6.86,2.55-10.67,2.55-4.44,0-7.64-1.14-9.59-3.41-1.95-2.25-2.42-5.31-1.43-9.17h4.55Z"/>
      <polygon class="cls-1" points="305.14 127.54 331.2 127.54 330.1 131.92 308.76 131.92 306.1 142.77 325.83 142.77 324.81 146.91 305.08 146.91 302.07 159.02 323.78 159.02 322.73 163.28 296.31 163.28 305.14 127.54"/>
    </g>
  </g>
</svg>